<?xml version="1.0" encoding="UTF-8"?><svg id="evsc-flame-grayscale-bw_Image" xmlns="http://www.w3.org/2000/svg" viewBox="0 0 56.41 125.67"><defs><style>.cls-1{fill:#363636;}</style></defs><path class="cls-1" d="M26.71,56.82c-9.99,10.48-15.6,17.71-11.81,33.27.26,1.07.98,2.99,1.14.8.11-1.47-.12-3.05.02-4.54,2.06-22.7,31.06-29.44,30.37-54.48-.03-1.14-.56-2.64-.6-3.75-.08-2.1,1.51.33,1.86,1.04,8.27,16.75,13.56,36.34,2.21,52.94-8.35,12.21-28.07,22.14-21.29,39.62.17.43,2.98,5.48.34,3.5-.98-.74-2.38-2.03-3.35-2.89C4.73,103.75-7.11,72.54,4.66,45.64c4.11-9.39,11.88-15.65,18.44-23.04C28.73,16.26,31.37,8.58,30.16.04c1.02-.21,1.25.54,1.76,1.24,3.84,5.26,10.37,16.29,10.9,22.68,1.27,15.07-6.7,22.99-16.12,32.87Z"/></svg>